<svg width="789" height="362" viewBox="0 0 789 362" fill="none" xmlns="http://www.w3.org/2000/svg">
<g clip-path="url(#clip0_778_551)">
<path d="M335.325 49.3638C328.093 146.61 322.339 237.768 335.325 334.85C335.325 337.163 336.243 339.381 337.877 341.017C339.511 342.652 341.726 343.571 344.037 343.571C346.347 343.571 348.563 342.652 350.197 341.017C351.831 339.381 352.749 337.163 352.749 334.85C366.721 237.439 361.625 148.091 352.749 49.3638C352.749 47.0508 351.831 44.8326 350.197 43.1971C348.563 41.5617 346.347 40.6428 344.037 40.6428C341.726 40.6428 339.511 41.5617 337.877 43.1971C336.243 44.8326 335.325 47.0508 335.325 49.3638ZM280.424 83.4247C270.725 167.117 270.725 251.651 280.424 335.344C280.424 337.744 281.376 340.046 283.072 341.743C284.767 343.44 287.067 344.394 289.464 344.394C291.862 344.394 294.162 343.44 295.857 341.743C297.553 340.046 298.505 337.744 298.505 335.344C309.271 251.717 309.271 167.052 298.505 83.4247C298.102 81.3199 296.979 79.4215 295.329 78.0561C293.679 76.6907 291.605 75.9437 289.464 75.9437C287.324 75.9437 285.25 76.6907 283.6 78.0561C281.95 79.4215 280.827 81.3199 280.424 83.4247ZM226.509 75.0328C216.153 161.438 216.153 248.774 226.509 335.179C226.509 337.492 227.427 339.71 229.06 341.346C230.694 342.981 232.91 343.9 235.221 343.9C237.531 343.9 239.747 342.981 241.381 341.346C243.015 339.71 243.933 337.492 243.933 335.179C254.699 248.799 254.699 161.413 243.933 75.0328C243.538 73.0098 242.453 71.187 240.864 69.8765C239.275 68.566 237.28 67.8495 235.221 67.8495C233.162 67.8495 231.167 68.566 229.577 69.8765C227.988 71.187 226.903 73.0098 226.509 75.0328ZM171.772 100.373C161.827 178.435 161.827 257.446 171.772 335.508C172.066 337.678 173.136 339.667 174.783 341.107C176.43 342.547 178.543 343.341 180.73 343.341C182.917 343.341 185.03 342.547 186.678 341.107C188.325 339.667 189.395 337.678 189.689 335.508C200.455 257.5 200.455 178.381 189.689 100.373C189.395 98.2034 188.325 96.2143 186.678 94.7742C185.03 93.334 182.917 92.5404 180.73 92.5404C178.543 92.5404 176.43 93.334 174.783 94.7742C173.136 96.2143 172.066 98.2034 171.772 100.373ZM117.199 158.786C104.214 219.339 110.296 274.956 117.199 335.837C117.581 337.738 118.608 339.448 120.106 340.676C121.605 341.904 123.482 342.576 125.418 342.576C127.355 342.576 129.232 341.904 130.73 340.676C132.228 339.448 133.255 337.738 133.637 335.837C141.691 273.968 148.102 220.656 133.637 158.786C132.916 157.211 131.758 155.876 130.301 154.94C128.844 154.004 127.149 153.507 125.418 153.507C123.687 153.507 121.992 154.004 120.535 154.94C119.078 155.876 117.921 157.211 117.199 158.786ZM62.2982 149.901C52.6813 208.857 52.6813 268.984 62.2982 327.939C62.2982 337.318 78.7357 337.154 80.0507 327.939C90.83 269.084 90.83 208.757 80.0507 149.901C79.4233 148.042 78.2294 146.428 76.6371 145.284C75.0448 144.14 73.1343 143.525 71.1744 143.525C69.2146 143.525 67.3041 144.14 65.7118 145.284C64.1195 146.428 62.9256 148.042 62.2982 149.901ZM7.39695 179.848C-2.04963 218.439 -2.04963 258.743 7.39695 297.334C7.90716 299.122 8.98532 300.695 10.4683 301.814C11.9512 302.934 13.7582 303.54 15.6157 303.54C17.4732 303.54 19.2802 302.934 20.7631 301.814C22.2461 300.695 23.3242 299.122 23.8344 297.334C35.0948 258.983 35.0948 218.199 23.8344 179.848C23.0274 178.372 21.8385 177.141 20.3925 176.283C18.9465 175.425 17.2966 174.972 15.6157 174.972C13.9348 174.972 12.2849 175.425 10.8389 176.283C9.39285 177.141 8.204 178.372 7.39695 179.848ZM386.281 235.136L472.907 154.673V18.5938C441.477 21.0214 411.407 32.445 386.281 51.5028V235.136ZM501.508 192.189V316.092C535.703 313.411 568.245 300.254 594.709 278.411L501.508 192.189ZM648.459 167.343C648.459 89.3483 583.696 25.3401 501.508 19.2519V154.673L614.269 258.995C636.189 233.485 648.311 200.991 648.459 167.343Z" fill="white"/>
<path d="M681.499 128.181H672.294C675.456 140.771 677.057 153.703 677.061 166.685C676.959 200.107 666.822 232.728 647.966 260.311C620.659 299.559 579.572 327.057 532.904 337.318C519.589 340.445 494.111 341.925 480.632 343.735H552.136C571.861 343.735 593.229 342.584 613.776 342.584H677.225C705.585 343.06 733.036 332.565 753.858 313.285C774.68 294.004 787.268 267.425 789 239.085C789.463 224.672 787.024 210.314 781.827 196.865C776.631 183.417 768.783 171.153 758.752 160.804C748.72 150.456 736.711 142.234 723.439 136.629C710.167 131.025 695.903 128.151 681.499 128.181ZM386.281 285.322C412.511 301.871 442.111 312.329 472.907 315.927V192.189L386.281 272.652V285.322Z" fill="white"/>
<ellipse cx="489.5" cy="166" rx="159.5" ry="158" fill="#0000FF"/>
<ellipse cx="489.499" cy="166" rx="141.778" ry="140.444" fill="url(#paint0_linear_778_551)"/>
<path fill-rule="evenodd" clip-rule="evenodd" d="M335.73 49.7207C328.497 146.968 322.744 238.126 335.73 335.208C335.73 337.521 336.647 339.738 338.281 341.374C339.915 343.01 342.131 343.929 344.442 343.929C346.752 343.929 348.968 343.01 350.602 341.374C352.235 339.738 353.153 337.521 353.153 335.208C367.125 237.797 362.029 148.448 353.153 49.7207C353.153 47.4082 352.235 45.1904 350.602 43.5547C348.968 41.9189 346.752 41 344.442 41C342.131 41 339.915 41.9189 338.281 43.5547C336.647 45.1904 335.73 47.4082 335.73 49.7207Z" fill="white"/>
</g>
<defs>
<linearGradient id="paint0_linear_778_551" x1="489.499" y1="25.5557" x2="489.499" y2="166" gradientUnits="userSpaceOnUse">
<stop stop-color="white" stop-opacity="0.6"/>
<stop offset="1" stop-color="white" stop-opacity="0"/>
</linearGradient>
<clipPath id="clip0_778_551">
<rect width="789" height="362" fill="white"/>
</clipPath>
</defs>
</svg>
